<?xml version="1.0" encoding="UTF-8" standalone="no"?>
<!-- Created with Inkscape (http://www.inkscape.org/) -->

<svg
   xmlns:dc="http://purl.org/dc/elements/1.1/"
   xmlns:cc="http://creativecommons.org/ns#"
   xmlns:rdf="http://www.w3.org/1999/02/22-rdf-syntax-ns#"
   xmlns:svg="http://www.w3.org/2000/svg"
   xmlns="http://www.w3.org/2000/svg"
   version="1.2"
   width="782.29999"
   height="213.72346"
   id="svg2">
  <defs
     id="defs4" />
  <metadata
     id="metadata7">
    <rdf:RDF>
      <cc:Work
         rdf:about="">
        <dc:format>image/svg+xml</dc:format>
        <dc:type
           rdf:resource="http://purl.org/dc/dcmitype/StillImage" />
        <dc:title></dc:title>
      </cc:Work>
    </rdf:RDF>
  </metadata>
  <g
     transform="matrix(0.33890574,0,0,0.33890574,-25.098269,-81.706154)"
     id="layer1">
    <path
       d="m 118.63964,871.71618 c -17.57847,-6.58732 -36.858092,-11.68744 -41.718922,-32.22645 -10.113291,-20.22343 8.667488,-41.71934 23.508252,-41.59127 23.13573,-6.22407 50.05226,-2.67106 69.93859,3.20576 19.00086,15.90516 40.48738,11.40262 56.98788,-5.15069 15.9848,-8.18908 36.05141,-17.54782 50.24831,-31.53919 16.96993,-15.58117 37.06736,-30.26501 48.09507,-48.98847 14.34831,-17.43352 29.85392,-39.54563 34.6226,-64.39885 9.73123,-16.69073 20.69592,-21.2545 29.91962,-26.47189 -4.9298,-17.37627 -24.4485,-14.22106 -30.20531,-33.16498 -16.12842,1.12588 -30.08814,18.20325 -39.75,32.11515 -14.14332,13.3067 -17.44454,21.00234 -22,29.81633 -9.49286,11.03833 -23.68301,22.10103 -36.61562,35.83869 -14.676,15.10346 -27.03326,34.25227 -46.91106,43.54439 -18.49288,-0.79395 -12.66945,3.60234 -30.51483,-6.92052 -13.72388,-12.19192 -12.91261,-33.96508 -11.22413,-54.42295 3.78651,-28.38087 15.52368,-41.61721 26.51566,-53.8522 2.35879,-20.44282 16.73901,-48.66388 12.37393,-74.00374 -2.06997,-22.15695 -1.80321,-35.88916 -0.36265,-53.61122 -1.52596,-20.23567 -2.8009,-47.01397 -5.1725,-69.45787 -5.67689,-28.26396 -4.4532,-56.89627 -5.26704,-76.36406 -1.08653,-25.99052 -7.77799,-57.08846 4.45626,-79.52167 10.13346,1.50617 17.32073,28.3454 23.64928,46.99562 4.95236,14.59459 12.17985,26.40765 19.92013,41.80784 20.63175,23.68198 0.60993,-32.35546 -8.4208,-41.0065 -2.62179,-13.3021 -40.54053,-47.15511 -3.55153,-37.84214 13.74756,14.39268 15.0656,19.67305 25.34679,43.20133 8.89014,17.59412 12.68642,40.76003 17.35582,60.74063 -0.74366,15.62318 24.69133,-5.49307 17.59549,-14.72292 10.56211,-10.41631 17.6632,-28.6506 22.33519,-41.11993 1.44384,-31.34365 23.17925,-48.54645 38.53223,-72.06134 22.44997,-33.31313 32.08526,31.01162 41.80947,45.06615 15.05719,25.22525 16.69499,54.73079 13.8277,81.01327 3.16414,23.38856 -2.40953,42.03467 -0.44311,65.66719 -0.77604,22.44772 0.19266,48.73416 -3.23468,70.21562 -0.3714,13.42707 -3.94421,20.55646 6.57564,38.07492 10.82879,31.31884 13.85501,33.9841 26.42434,55.55512 6.97284,6.09256 15.16452,16.87851 26.0695,17.93972 23.662,20.03277 42.09965,35.83698 59.40964,57.68024 5.91731,8.1969 17.13051,11.65399 25.83119,24.5993 24.09931,52.62105 43.87582,41.13167 77.46281,56.24305 12.86118,8.96625 25.07903,2.11103 38.60504,6.5765 17.8799,9.55631 17.53838,10.84561 30.2089,22.43182 6.52505,4.76517 9.69497,2.11119 12.82734,7.36344 9.93935,21.9917 -29.8267,35.97994 -51.21005,30.6785 -21.35196,-7.65013 -42.55232,5.72537 -61.50715,-0.17487 -28.16725,5.01239 -56.78975,17.5097 -85.45405,11.72556 -14.75183,-18.00759 2.33383,-26.60306 12.75846,-41.19327 5.26895,-18.65113 44.42851,-28.7689 29.99837,-48.95443 -14.87438,-20.34855 -30.72735,-40.1864 -51.81531,-54.56573 -7.59068,-9.0565 -14.86922,-17.43537 -17.85937,-5.90517 0.64992,18.46943 -15.73894,60.00074 -31.3253,88.4253 -15.75034,17.87076 -24.09123,47.88742 -48.80217,53.07283 -11.91913,14.10351 -28.24356,24.5499 -40.7458,34.42717 -7.77137,6.51942 -16.847,4.19101 -22.26041,0.47507 -12.56695,-17.07798 -32.05868,-18.17904 -40.64626,-21.90058 -8.25605,-3.57787 -42.76333,-8.18017 -62.28325,2.42551 -19.66031,6.42192 -31.25372,10.52179 -52.72587,15.99658 -24.43656,1.02669 -36.49664,2.65657 -55.04645,4.13554 -3.31727,5.23786 -11.06947,3.77278 -16.13588,4.07876 z m 239.48129,-22.56613 c 9.71329,-13.99194 0.38174,-28.92156 -2.91014,-45.33465 -11.05964,-10.80756 -1.4202,-28.98961 -26.29127,-22.4214 -20.44327,-5.40752 -42.63759,26.82238 -10.24247,22.11104 19.96011,-10.43128 32.60857,12.60851 6.95998,11.99159 -19.48547,-1.1385 -17.38566,0.40634 -12.92979,12.39598 14.43534,10.59653 16.72956,9.95071 30.93292,15.67737 8.76357,1.82991 8.18399,23.78027 14.48077,5.58007 z m -221.98346,3.04069 c 15.28568,-4.7748 29.99889,0.99282 47.57916,-1.79753 8.0168,-4.75162 42.01545,-9.87566 11.57576,-14.1138 -20.59653,-9.50626 -42.84791,-19.60823 -64.04739,-25.64881 -6.77995,11.49061 30.92849,22.29405 3.84933,26.27546 -25.8053,-0.42613 -12.13298,-44.86757 -37.433062,-17.19509 -19.923553,27.48633 32.431852,9.17224 28.275762,30.61113 0.14795,5.28573 7.70326,4.31004 10.20044,1.86864 z m 122.317,-30.07306 c 19.83182,4.95522 23.93934,-43.7773 1.44167,-21.91319 -7.5104,-1.73153 -40.5991,31.10836 -23.0801,20.71765 10.58429,0.16754 12.28279,6.92229 21.63843,1.19554 z m 389.80844,-18.10092 c 10.31205,-4.205 49.18659,7.06514 24.43852,-5.37531 -5.62988,-5.82381 -31.88754,-14.79421 -47.85746,-18.13641 -10.72701,-3.78686 -35.50198,-13.74495 -41.33216,0.12229 -15.84244,5.30965 -52.60766,46.23043 -14.28746,35.33893 40.45443,0.94933 53.76625,-17.67312 79.03856,-11.9495 z M 384.66767,785.34532 c 13.9735,-14.60342 1.27145,-36.3877 19.5288,-52.1361 9.33381,-3.31151 8.94526,-29.03598 12.39343,-39.78773 6.33674,-23.94665 -15.83316,-23.56935 -26.18817,-15.86645 -17.55831,13.06129 -27.23684,16.84523 -37.19434,37.09037 -7.46686,7.13922 -13.10747,24.29218 -26.38583,32.43999 -15.65312,11.30451 -20.69219,28.50999 -3.47796,19.73444 16.8898,3.94871 21.04036,-5.87735 43.38557,1.59368 11.12091,-4.11085 11.04453,28.43377 17.9385,16.9318 z M 205.69637,685.00504 c 7.43541,-5.9492 18.45458,-19.53695 9.68874,-30.31955 1.10544,-17.19276 -18.72619,3.68268 -21.45209,19.2351 -8.64025,14.03321 12.23717,11.39135 11.76335,11.08445 z m 50.58936,-31.83949 c 11.88002,-14.12235 29.92587,-26.89482 38.52163,-43.86627 8.95906,-14.06196 6.18352,-8.90137 12.74702,-19.1692 6.5635,-10.26783 -15.27614,-15.143 -26.31429,-18.3053 -15.48641,-1.98942 -28.66775,-6.46035 -41.41069,0.7477 -9.70409,5.84959 -9.75002,6.7443 -14.2183,22.01151 -2.12203,7.25056 -19.0407,35.94554 4.67463,34.95243 10.62184,4.61849 9.79495,12.71657 18.58347,19.289 4.73401,3.54029 0.68045,9.40038 7.41653,4.34013 z m 24,-111.77729 c 15.05218,-12.77299 -10.51999,-32.80885 0.27018,-54.88337 8.63318,-9.32373 36.35529,-4.75292 31.1031,21 -2.48859,10.19152 -5.78189,33.07858 5.17004,19.25777 20.12549,-2.01624 15.68589,-37.9231 17.98494,-54.49516 -2.11875,-19.06024 -12.83234,-50.29631 -34.53401,-38.92503 -23.43377,-1.75144 -20.01024,40.00802 -45.3026,37.85332 2.70606,21.78364 -13.0964,64.91918 16.80836,71.3091 l 6.34696,-0.28284 z m 82.75298,-25.12444 c 11.22482,-13.6154 6.7791,-26.96558 15.67597,-45.75893 4.85695,-21.02796 9.50161,-42.37179 14.2856,-61.7207 3.43089,-18.548 5.58393,-26.75623 2.20114,-36.95102 -0.48464,-23.20609 -1.73668,-44.11848 -8.5337,-69.62228 -6.27388,-24.53888 -13.90967,-7.97539 -14.93973,7.35685 -1.53976,22.47654 -6.59939,47.66242 -9.76609,71.13193 -3.66442,27.15826 -6.42157,51.02358 -9.10452,81.03989 -1.00442,11.23735 -4.01676,27.54342 5.46849,37.24052 15.56466,3.00208 -2.94265,17.1644 4.71284,17.28374 z m -136.02064,3.38455 c 0.86387,-6.66239 0.39007,-19.42293 1.68565,-21.96965 4.83196,-9.49816 7.60441,-1.24959 7.95269,4.46736 0.79141,12.99074 3.99626,16.82687 5.14284,6.52309 0.52317,-4.70154 -0.12226,-17.96179 0.65037,-23.31646 0.77263,-5.35467 -4.03914,-45.26112 -20.49153,-43.17822 -1.81277,3.4448 -3.87425,23.06825 -3.81929,40.58694 0.0549,17.51869 2.22633,41.86119 8.87927,36.88694 z M 234.3393,409.7787 c 8.92895,-7.90381 9.91505,-10.45725 22.0056,-17.11589 -8.05879,-5.88464 -12.68454,2.56597 -20.61686,-1.4592 -10.62307,-23.82044 -10.40698,-13.08506 -11.47746,-1.89573 -0.53524,5.59467 -1.07473,8.72733 1.13683,16.47779 1.49188,5.22833 -0.53269,12.38868 8.95189,3.99303 z m 328.51072,310.01932 c -1.25112,-4.37677 3.47251,4.67515 0,0 z"
       id="path3050"
       style="fill:#000000" />
    <g
       id="text3053"
       style="font-size:245.48321533px;font-style:normal;font-weight:normal;line-height:125%;letter-spacing:0px;word-spacing:0px;fill:#000000;fill-opacity:1;stroke:none;font-family:Sans">
      <path
         d="m 497.33329,441.05466 c -44.6779,0 -63.58015,23.81191 -63.58015,63.08918 0,39.27728 18.90225,63.08919 63.58015,63.08919 44.43242,0 63.33467,-23.81191 63.33467,-63.08919 0,-39.27727 -18.90225,-63.08918 -63.33467,-63.08918 m -24.54832,63.08918 c 0,-32.89471 7.11903,-51.79695 24.54832,-51.79695 17.18381,0 24.30284,18.90224 24.30284,51.79695 0,32.89472 -7.11903,51.79696 -24.30284,51.79696 -17.42929,0 -24.54832,-18.90224 -24.54832,-51.79696"
         id="path3066"
         style="font-variant:normal;font-weight:bold;font-stretch:normal;font-family:Utopia;-inkscape-font-specification:Utopia Bold" />
      <path
         d="m 628.65146,489.16937 c 0,-3.92773 0.24548,-8.34643 0.98193,-11.53771 2.9458,-12.02867 11.78321,-17.6748 21.84801,-17.6748 12.02866,0 17.42931,9.57386 17.67479,23.56639 l 0,61.12532 c 0,8.10094 -2.70032,9.32837 -7.85546,9.81933 l -5.15515,0.49097 0,9.32836 63.08919,0 0,-9.32836 -5.15515,-0.49097 c -5.15514,-0.49096 -7.85546,-1.71839 -7.85546,-9.81933 l 0,-55.4792 c 0,-3.92773 0.24548,-8.8374 0.98193,-11.7832 3.19128,-12.02866 11.53772,-17.42931 20.37511,-17.42931 11.5377,-0.24548 18.65672,8.10097 19.14769,23.56639 l 0,61.12532 c 0,8.10094 -2.70032,9.32837 -7.85547,9.81933 l -5.15514,0.49097 0,9.32836 66.03498,0 0,-9.32836 c -13.99253,-0.73645 -15.95641,-1.71839 -15.95641,-12.02868 l 0,-63.82563 c -0.24548,-23.32089 -12.27418,-38.0499 -38.29538,-38.0499 -16.93832,0 -32.15831,11.7832 -42.71408,18.41124 -4.90966,-8.83739 -14.97449,-18.41124 -33.38572,-18.41124 -15.95639,0 -27.24865,8.34644 -40.75021,16.93834 l -3.19128,-16.93834 -48.3602,7.11901 0,8.8374 8.59192,1.22741 c 3.92773,0.49097 5.89159,2.70033 5.89159,12.51965 l 0,72.17206 c 0,10.31029 -1.96388,11.29223 -15.9564,12.02868 l 0,9.32836 66.03498,0 0,-9.32836 -5.15515,-0.49097 c -5.15514,-0.49096 -7.85546,-1.71839 -7.85546,-9.81933 l 0,-55.4792"
         id="path3068"
         style="font-variant:normal;font-weight:bold;font-stretch:normal;font-family:Utopia;-inkscape-font-specification:Utopia Bold" />
      <path
         d="m 914.95008,526.48282 c -7.36449,13.99253 -17.92029,21.848 -32.89475,21.848 -24.5483,0 -32.89475,-20.12965 -32.89475,-45.90536 l 63.33467,0 c 8.83739,0 13.25609,-2.45484 13.25609,-10.31029 0,-20.12961 -7.61003,-51.06051 -54.98824,-51.06051 -44.18693,0 -60.63435,28.72157 -60.63435,63.08918 0,33.38569 14.48355,63.33467 60.14339,63.08919 29.21247,0 45.16892,-14.23805 53.51534,-35.84055 l -8.8374,-4.90966 m -65.7895,-35.84055 c 0,-17.67478 4.6642,-38.29538 20.62059,-38.29538 14.97446,0 17.42931,18.65673 17.42931,30.19443 0,6.62804 -1.96387,8.10095 -7.60998,8.10095 l -30.43992,0"
         id="path3070"
         style="font-variant:normal;font-weight:bold;font-stretch:normal;font-family:Utopia;-inkscape-font-specification:Utopia Bold" />
      <path
         d="m 1067.7711,478.85907 c -0.2455,-23.0754 -11.7832,-37.80441 -37.068,-37.80441 -14.238,0 -25.7757,7.3645 -41.97762,16.93834 l -3.19128,-16.93834 -48.36019,7.11901 0,8.8374 8.59191,1.22741 c 3.92773,0.49097 5.8916,2.70033 5.8916,12.51965 l 0,72.17206 c 0,10.31029 -1.96388,11.29223 -15.95641,12.02868 l 0,9.32836 66.03499,0 0,-9.32836 -5.15516,-0.49097 c -5.15514,-0.49096 -7.85546,-1.71839 -7.85546,-9.81933 l 0,-58.17952 c 0,-5.40062 0.73645,-11.04675 2.45483,-14.48351 3.19128,-6.38255 9.81939,-12.02868 20.12959,-12.02868 12.5197,0 18.9022,7.61 19.3932,22.33898 l 0,62.35273 c 0,8.10094 -2.7003,9.32837 -7.8555,9.81933 l -5.1551,0.49097 0,9.32836 66.035,0 0,-9.32836 c -13.9925,-0.73645 -15.9564,-1.71839 -15.9564,-12.02868 l 0,-64.07112"
         id="path3072"
         style="font-variant:normal;font-weight:bold;font-stretch:normal;font-family:Utopia;-inkscape-font-specification:Utopia Bold" />
      <path
         d="m 1170.7935,456.27462 0,-12.27416 -25.5303,0 0,-30.93089 -14.238,0 -21.6025,30.93089 -15.4655,0 0,12.27416 14.2381,0 0,79.29108 c 0,22.33895 16.6928,31.66733 30.4399,31.66733 10.0648,0 25.2848,-4.66419 39.0318,-13.25609 l -2.7003,-7.60998 c -3.4368,1.47289 -8.5919,2.45483 -13.9925,2.45483 -9.3284,0 -15.711,-6.87355 -15.711,-22.58446 l 0,-69.96271 25.5303,0"
         id="path3074"
         style="font-variant:normal;font-weight:bold;font-stretch:normal;font-family:Utopia;-inkscape-font-specification:Utopia Bold" />
      <path
         d="m 1240.7754,555.44984 c 9.3283,8.5919 27.7396,11.78319 41.4866,11.78319 29.9489,0 50.5696,-13.5016 50.5696,-40.01376 0,-21.11154 -13.2562,-31.17638 -35.8406,-39.76828 -14.238,-5.15515 -24.7938,-11.04676 -24.7938,-20.86608 0,-7.60997 5.4006,-14.23802 15.4654,-14.23802 12.5197,0 23.0755,11.29224 27.7396,29.94895 l 9.0829,0 0,-32.64927 c -10.0648,-6.13707 -24.0573,-8.59191 -36.8225,-8.59191 -29.9489,0 -48.6056,13.99257 -48.6056,38.78635 0,17.92025 14.4835,29.70347 36.086,37.80441 12.5196,4.41869 24.5483,11.53772 24.5483,23.32091 0,9.32835 -6.1371,14.97447 -16.9383,14.97447 -16.2019,0 -29.2125,-16.93836 -35.5951,-37.06796 l -9.3283,0 2.9458,36.577"
         id="path3076"
         style="font-variant:normal;font-weight:bold;font-stretch:normal;font-family:Utopia;-inkscape-font-specification:Utopia Bold" />
      <path
         d="m 1450.9857,526.48282 c -7.3645,13.99253 -17.9203,21.848 -32.8947,21.848 -24.5483,0 -32.8948,-20.12965 -32.8948,-45.90536 l 63.3347,0 c 8.8374,0 13.2561,-2.45484 13.2561,-10.31029 0,-20.12961 -7.61,-51.06051 -54.9883,-51.06051 -44.1869,0 -60.6343,28.72157 -60.6343,63.08918 0,33.38569 14.4835,63.33467 60.1434,63.08919 29.2125,0 45.1689,-14.23805 53.5153,-35.84055 l -8.8374,-4.90966 m -65.7895,-35.84055 c 0,-17.67478 4.6642,-38.29538 20.6206,-38.29538 14.9745,0 17.4293,18.65673 17.4293,30.19443 0,6.62804 -1.9638,8.10095 -7.61,8.10095 l -30.4399,0"
         id="path3078"
         style="font-variant:normal;font-weight:bold;font-stretch:normal;font-family:Utopia;-inkscape-font-specification:Utopia Bold" />
      <path
         d="m 1524.761,489.16937 c 0,-3.92773 0.2455,-8.34643 0.982,-11.53771 2.9458,-12.02867 11.7832,-17.6748 21.848,-17.6748 12.0286,0 17.4293,9.57386 17.6748,23.56639 l 0,61.12532 c 0,8.10094 -2.7004,9.32837 -7.8555,9.81933 l -5.1551,0.49097 0,9.32836 63.0891,0 0,-9.32836 -5.1551,-0.49097 c -5.1551,-0.49096 -7.8555,-1.71839 -7.8555,-9.81933 l 0,-55.4792 c 0,-3.92773 0.2455,-8.8374 0.982,-11.7832 3.1912,-12.02866 11.5377,-17.42931 20.3751,-17.42931 11.5377,-0.24548 18.6567,8.10097 19.1477,23.56639 l 0,61.12532 c 0,8.10094 -2.7004,9.32837 -7.8555,9.81933 l -5.1552,0.49097 0,9.32836 66.035,0 0,-9.32836 c -13.9925,-0.73645 -15.9564,-1.71839 -15.9564,-12.02868 l 0,-63.82563 c -0.2455,-23.32089 -12.2742,-38.0499 -38.2954,-38.0499 -16.9383,0 -32.1583,11.7832 -42.714,18.41124 -4.9097,-8.83739 -14.9745,-18.41124 -33.3858,-18.41124 -15.9563,0 -27.2486,8.34644 -40.7502,16.93834 l -3.1912,-16.93834 -48.3602,7.11901 0,8.8374 8.5919,1.22741 c 3.9277,0.49097 5.8916,2.70033 5.8916,12.51965 l 0,72.17206 c 0,10.31029 -1.9639,11.29223 -15.9564,12.02868 l 0,9.32836 66.0349,0 0,-9.32836 -5.1551,-0.49097 c -5.1551,-0.49096 -7.8555,-1.71839 -7.8555,-9.81933 l 0,-55.4792"
         id="path3080"
         style="font-variant:normal;font-weight:bold;font-stretch:normal;font-family:Utopia;-inkscape-font-specification:Utopia Bold" />
      <path
         d="m 1834.8716,551.76759 c -3.1913,0.24548 -8.101,0 -11.7832,-1.22742 -3.1913,-0.98193 -7.8555,-3.92774 -7.8555,-18.41124 l 0,-56.70662 c 0,-15.21995 -2.4549,-34.36765 -45.9053,-34.36765 -36.086,0 -58.1796,14.23804 -58.1796,30.19443 0,11.04674 15.711,15.46545 22.0935,15.46545 5.4006,0 8.101,-3.92774 10.0648,-9.81933 6.8736,-20.86606 14.729,-24.54832 21.6026,-24.54832 7.119,0 14.238,4.17322 14.238,18.16575 l 0,13.01061 c -8.5919,5.89159 -29.2125,12.02869 -45.1689,17.42931 -19.3932,6.62804 -26.0213,16.69287 -26.0213,30.6854 0,18.41123 12.2742,35.59507 37.068,35.59507 15.7109,0 26.5122,-8.59192 35.1041,-14.23803 3.1913,7.60998 7.3645,14.23803 19.1477,14.23803 12.7651,0 28.2306,-4.17322 36.3315,-7.3645 l -0.7364,-8.10094 m -55.7247,-20.37511 c -0.491,13.25608 -8.5919,16.69286 -15.22,16.69286 -9.5738,0 -18.1657,-7.60999 -18.1657,-20.62059 0,-11.5377 3.9277,-17.18383 11.2922,-21.35704 7.61,-4.17321 16.2019,-7.60998 22.0935,-10.3103 l 0,35.59507"
         id="path3082"
         style="font-variant:normal;font-weight:bold;font-stretch:normal;font-family:Utopia;-inkscape-font-specification:Utopia Bold" />
      <path
         d="m 1970.1136,478.85907 c -0.2454,-23.0754 -11.7832,-37.80441 -37.0679,-37.80441 -14.238,0 -25.7758,7.3645 -41.9777,16.93834 l -3.1912,-16.93834 -48.3602,7.11901 0,8.8374 8.5919,1.22741 c 3.9277,0.49097 5.8916,2.70033 5.8916,12.51965 l 0,72.17206 c 0,10.31029 -1.9639,11.29223 -15.9564,12.02868 l 0,9.32836 66.035,0 0,-9.32836 -5.1552,-0.49097 c -5.1551,-0.49096 -7.8555,-1.71839 -7.8555,-9.81933 l 0,-58.17952 c 0,-5.40062 0.7365,-11.04675 2.4549,-14.48351 3.1913,-6.38255 9.8193,-12.02868 20.1296,-12.02868 12.5196,0 18.9022,7.61 19.3932,22.33898 l 0,62.35273 c 0,8.10094 -2.7004,9.32837 -7.8555,9.81933 l -5.1551,0.49097 0,9.32836 66.0349,0 0,-9.32836 c -13.9925,-0.73645 -15.9564,-1.71839 -15.9564,-12.02868 l 0,-64.07112"
         id="path3084"
         style="font-variant:normal;font-weight:bold;font-stretch:normal;font-family:Utopia;-inkscape-font-specification:Utopia Bold" />
      <path
         d="m 2073.136,456.27462 0,-12.27416 -25.5302,0 0,-30.93089 -14.2381,0 -21.6025,30.93089 -15.4654,0 0,12.27416 14.238,0 0,79.29108 c 0,22.33895 16.6929,31.66733 30.4399,31.66733 10.0648,0 25.2848,-4.66419 39.0318,-13.25609 l -2.7003,-7.60998 c -3.4367,1.47289 -8.5919,2.45483 -13.9925,2.45483 -9.3284,0 -15.7109,-6.87355 -15.7109,-22.58446 l 0,-69.96271 25.5302,0"
         id="path3086"
         style="font-variant:normal;font-weight:bold;font-stretch:normal;font-family:Utopia;-inkscape-font-specification:Utopia Bold" />
      <path
         d="m 2101.4012,542.93019 c 0,10.31029 -1.9639,11.29223 -15.9564,12.02868 l 0,9.32836 68.9808,0 0,-9.32836 c -13.9926,-0.73645 -15.9564,-1.71839 -15.9564,-12.02868 l 0,-100.40263 -1.7184,-1.4729 -49.8331,7.11901 0,8.8374 8.5919,1.22741 c 3.9277,0.49097 5.8916,2.70033 5.8916,12.51965 l 0,72.17206 m 17.1838,-112.43131 c 13.5016,0 22.5845,-9.81934 22.5845,-21.60252 0,-11.5377 -8.5919,-21.35704 -22.5845,-21.35704 -13.747,0 -22.3389,9.81934 -22.3389,21.35704 0,11.78318 8.5919,21.60252 22.3389,21.60252"
         id="path3088"
         style="font-variant:normal;font-weight:bold;font-stretch:normal;font-family:Utopia;-inkscape-font-specification:Utopia Bold" />
      <path
         d="m 2266.9566,525.99185 c -8.3465,16.69284 -17.9203,22.33897 -31.4219,22.33897 -15.9564,0 -31.4219,-10.8013 -31.4219,-49.09664 0,-32.89472 10.5558,-46.88729 20.8661,-46.88729 8.5919,0 12.7652,7.60999 16.9384,22.33897 1.7183,5.64611 5.4006,8.59191 11.7832,8.59191 8.5919,0 20.3751,-4.41871 20.3751,-15.21996 0,-17.42929 -24.5484,-27.00315 -46.8873,-27.00315 -19.1477,0 -34.3677,5.40064 -45.4144,16.44737 -10.3103,10.31029 -16.6929,26.26673 -16.6929,47.62375 0,41.24114 23.0755,62.10725 57.6886,62.10725 20.3751,0 43.205,-6.87356 52.7789,-37.31345 l -8.5919,-3.92773"
         id="path3090"
         style="font-variant:normal;font-weight:bold;font-stretch:normal;font-family:Utopia;-inkscape-font-specification:Utopia Bold" />
      <path
         d="m 2290.312,555.44984 c 9.3283,8.5919 27.7396,11.78319 41.4866,11.78319 29.949,0 50.5696,-13.5016 50.5696,-40.01376 0,-21.11154 -13.2561,-31.17638 -35.8406,-39.76828 -14.238,-5.15515 -24.7938,-11.04676 -24.7938,-20.86608 0,-7.60997 5.4007,-14.23802 15.4655,-14.23802 12.5196,0 23.0754,11.29224 27.7396,29.94895 l 9.0828,0 0,-32.64927 c -10.0648,-6.13707 -24.0573,-8.59191 -36.8224,-8.59191 -29.949,0 -48.6057,13.99257 -48.6057,38.78635 0,17.92025 14.4835,29.70347 36.086,37.80441 12.5197,4.41869 24.5483,11.53772 24.5483,23.32091 0,9.32835 -6.137,14.97447 -16.9383,14.97447 -16.2019,0 -29.2125,-16.93836 -35.5951,-37.06796 l -9.3283,0 2.9458,36.577"
         id="path3092"
         style="font-variant:normal;font-weight:bold;font-stretch:normal;font-family:Utopia;-inkscape-font-specification:Utopia Bold" />
    </g>
    <flowRoot
       id="flowRoot3057"
       xml:space="preserve"
       style="font-size:40px;font-style:normal;font-weight:normal;line-height:125%;letter-spacing:0px;word-spacing:0px;fill:#000000;fill-opacity:1;stroke:none;font-family:Sans"><flowRegion
         id="flowRegion3059"><rect
           width="27.142857"
           height="78.571426"
           x="1575.7142"
           y="336.64789"
           id="rect3061" /></flowRegion><flowPara
         id="flowPara3063" /></flowRoot>  </g>
</svg>
